<svg width="22" height="19" viewBox="0 0 22 19" fill="none" xmlns="http://www.w3.org/2000/svg">
<path fill-rule="evenodd" clip-rule="evenodd" d="M0.00585938 2.83838C0.00585938 1.73381 0.90129 0.838379 2.00586 0.838379H10.6043C11.7089 0.838379 12.6043 1.73381 12.6043 2.83838V8H5C4.44772 8 4 8.44772 4 9C4 9.55229 4.44772 10 5 10H12.6043V17C12.6043 18.1046 11.7089 19 10.6043 19H2.00586C0.90129 19 0.00585938 18.1046 0.00585938 17V2.83838ZM16.984 4.24073C16.5646 3.88132 15.9333 3.92989 15.5739 4.34922C15.2145 4.76855 15.2631 5.39985 15.6824 5.75927L18.2967 8H14H13V10H14H18.2967L15.6824 12.2407C15.2631 12.6001 15.2145 13.2314 15.5739 13.6508C15.9333 14.0701 16.5646 14.1187 16.984 13.7593L21.6508 9.75927C21.8724 9.56928 22 9.29193 22 9C22 8.70807 21.8724 8.43072 21.6508 8.24073L16.984 4.24073Z" fill="#B1B3B2"/>
</svg>