<svg width="18" height="18" viewBox="0 0 18 18" fill="none" xmlns="http://www.w3.org/2000/svg">
<path fill-rule="evenodd" clip-rule="evenodd" d="M2 0C0.89543 0 0 0.895431 0 2V6C0 7.10457 0.895431 8 2 8H6C7.10457 8 8 7.10457 8 6L8 2C8 0.89543 7.10457 0 6 0H2ZM10 12C10 10.8954 10.8954 10 12 10H16C17.1046 10 18 10.8954 18 12V16C18 17.1046 17.1046 18 16 18H12C10.8954 18 10 17.1046 10 16V12ZM1 13C1 11.8954 1.89543 11 3 11H5C6.10457 11 7 11.8954 7 13V15C7 16.1046 6.10457 17 5 17H3C1.89543 17 1 16.1046 1 15L1 13ZM11 3C11 1.89543 11.8954 1 13 1L15 1C16.1046 1 17 1.89543 17 3V5C17 6.10457 16.1046 7 15 7H13C11.8954 7 11 6.10457 11 5V3Z" fill="#C7C9C8"/>
</svg>
