<svg width="24" height="24" viewBox="0 0 24 24" fill="none" xmlns="http://www.w3.org/2000/svg">
<circle cx="12" cy="12" r="12" fill="#EF373E"/>
<path fill-rule="evenodd" clip-rule="evenodd" d="M15.0371 7.06084C15.5622 6.53571 16.4136 6.53571 16.9387 7.06084C17.4639 7.58597 17.4639 8.43738 16.9387 8.96251L13.9 12.0013L16.8315 14.9327C17.3566 15.4578 17.3566 16.3093 16.8315 16.8344C16.3063 17.3595 15.4549 17.3595 14.9298 16.8344L11.9983 13.9029L9.06688 16.8344C8.54175 17.3595 7.69034 17.3595 7.16521 16.8344C6.64008 16.3092 6.64008 15.4578 7.16521 14.9327L10.0967 12.0013L7.05791 8.96251C6.53278 8.43738 6.53278 7.58597 7.05791 7.06084C7.58304 6.53571 8.43445 6.53571 8.95958 7.06084L11.9983 10.0996L15.0371 7.06084Z" fill="white"/>
</svg>
