<svg width="24" height="24" viewBox="0 0 24 24" fill="none" xmlns="http://www.w3.org/2000/svg">
<circle cx="12" cy="12" r="12" fill="#81ABEF"/>
<path fill-rule="evenodd" clip-rule="evenodd" d="M11.668 6.6665C10.1104 6.6665 8.80617 7.81361 8.65119 9.31994L8.49391 10.8485C8.48434 10.9415 8.47956 10.988 8.47382 11.0337C8.3947 11.6648 8.17149 12.2706 7.82051 12.8071C7.79506 12.846 7.7684 12.8848 7.71508 12.9625L7.24253 13.6515C6.81104 14.2805 6.59529 14.595 6.68998 14.8485C6.70788 14.8964 6.73276 14.9416 6.76386 14.9827C6.92834 15.1998 7.31728 15.1998 8.09516 15.1998H15.2408C16.0187 15.1998 16.4076 15.1998 16.5721 14.9827C16.6032 14.9416 16.6281 14.8964 16.646 14.8485C16.7406 14.595 16.5249 14.2805 16.0934 13.6515L15.6209 12.9625L15.6208 12.9624C15.5675 12.8848 15.5409 12.8459 15.5154 12.8071C15.1645 12.2706 14.9412 11.6648 14.8621 11.0337C14.8564 10.988 14.8516 10.9415 14.842 10.8486L14.842 10.8485L14.6848 9.31994C14.5298 7.81361 13.2256 6.6665 11.668 6.6665ZM11.668 17.3332C11.9364 17.3332 12.2068 17.3119 12.4395 17.2685C12.5558 17.2468 12.6696 17.2184 12.7728 17.1808C12.8665 17.1468 12.9943 17.0902 13.1024 16.9921C13.324 16.7912 13.3361 16.4537 13.1293 16.2384C12.9342 16.0351 12.614 16.0133 12.3923 16.1803L12.3882 16.1818C12.3589 16.1925 12.3081 16.2069 12.2327 16.2209C12.082 16.249 11.8827 16.2665 11.668 16.2665C11.4532 16.2665 11.2539 16.249 11.1032 16.2209C11.0279 16.2069 10.977 16.1925 10.9477 16.1818L10.9436 16.1803C10.7219 16.0133 10.4017 16.0351 10.2066 16.2384C9.99987 16.4537 10.0119 16.7912 10.2335 16.9921C10.3416 17.0902 10.4694 17.1468 10.5631 17.1808C10.6663 17.2184 10.7802 17.2468 10.8965 17.2685C11.1291 17.3119 11.3995 17.3332 11.668 17.3332Z" fill="white"/>
</svg>
